<svg xmlns="http://www.w3.org/2000/svg" xmlns:xlink="http://www.w3.org/1999/xlink" viewBox="0 0 72 72"><defs><style>.cls-1{fill:url(#radial-gradient);}.cls-2{fill:url(#radial-gradient-2);}</style><radialGradient id="radial-gradient" cx="36" cy="36" r="32.92" gradientUnits="userSpaceOnUse"><stop offset="0.33" stop-color="#1284af"/><stop offset="0.39" stop-color="#1a88b2"/><stop offset="0.48" stop-color="#3094b9"/><stop offset="0.6" stop-color="#54a6c5"/><stop offset="0.73" stop-color="#85c0d6"/><stop offset="0.87" stop-color="#c4e1eb"/><stop offset="0.99" stop-color="#fff"/></radialGradient><radialGradient id="radial-gradient-2" cx="36" cy="36" r="32.92" gradientUnits="userSpaceOnUse"><stop offset="0.21" stop-color="#1284af"/><stop offset="0.93" stop-color="#005291"/></radialGradient></defs><g id="ICON"><path class="cls-1" d="M32.26,33.64C25.45,51.76,9,54.53,6.74,55.37c-1.09.42-.53.79,0,.73C7.55,56,8.49,56,8.82,56c1-.05,1.16-.06,1.79.7s3.21,3.51,3.21,3.51c15-4.13,20-17.7,22.87-26.68ZM61.05,15c-4.29,1.69-15.31,6.55-19.49,16.35,4.8-.07,9.75.15,11.4.17,2.64,0,3.47,1.24-.31,1.29-4.08.29-11.63.6-11.63.6-1.64,4.25-7,24.17-27.2,27.74-2.27.41-1.06,1-.12,1,.5,0,1.09,0,1.52-.06a1.81,1.81,0,0,1,1.22.44,30.63,30.63,0,0,0,18.9,6.38c15,.22,24.19-10,25.62-11.55a32.65,32.65,0,0,0,8-20.76,33.89,33.89,0,0,0-6.39-19.93c-.31-.52-.81-1,0-1.31.49-.2.68-.46.22-.58A4.2,4.2,0,0,0,61.05,15ZM53.56,8.15C37.87,13.83,34.09,28.42,33,31.49c1.18-.07,3-.08,4.3-.1,2.12-4,6-13.43,23-17.35a43.12,43.12,0,0,0-4.57-4.16c-.39-.31-1.07-1,.06-1.44.89-.35.35-.66-.21-.66A6.28,6.28,0,0,0,53.56,8.15ZM35.88,3.08h-.94c-11.11.3-18.76,5.28-24.75,12.15s-6.86,15.94-7,18.35a32.81,32.81,0,0,0,5,20.16C24.15,47,28,34.43,28.62,32.45c-1.69,0-5.44.4-6.38.45-.61,0-2.25.21-3.09-.41-1.11-.8.39-1.05,2.05-1.39,1-.2,8.44-.94,8.44-.94C30.35,28,34.16,11.66,52.2,7.45c0,0-5.72-4.34-16.12-4.37Z"/><path class="cls-2" d="M32.26,33.64C25.45,51.76,9,54.53,6.74,55.37c-1.09.42-.53.79,0,.73C7.55,56,8.49,56,8.82,56c1-.05,1.16-.06,1.79.7s3.21,3.51,3.21,3.51c15-4.13,20-17.7,22.87-26.68ZM61.05,15c-4.29,1.69-15.31,6.55-19.49,16.35,4.8-.07,9.75.15,11.4.17,2.64,0,3.47,1.24-.31,1.29-4.08.29-11.63.6-11.63.6-1.64,4.25-7,24.17-27.2,27.74-2.27.41-1.06,1-.12,1,.5,0,1.09,0,1.52-.06a1.81,1.81,0,0,1,1.22.44,30.63,30.63,0,0,0,18.9,6.38c15,.22,24.19-10,25.62-11.55a32.65,32.65,0,0,0,8-20.76,33.89,33.89,0,0,0-6.39-19.93c-.31-.52-.81-1,0-1.31.49-.2.68-.46.22-.58A4.2,4.2,0,0,0,61.05,15ZM53.56,8.15C37.87,13.83,34.09,28.42,33,31.49c1.18-.07,3-.08,4.3-.1,2.12-4,6-13.43,23-17.35a43.12,43.12,0,0,0-4.57-4.16c-.39-.31-1.07-1,.06-1.44.89-.35.35-.66-.21-.66A6.28,6.28,0,0,0,53.56,8.15ZM35.88,3.08h-.94c-11.11.3-18.76,5.28-24.75,12.15s-6.86,15.94-7,18.35a32.81,32.81,0,0,0,5,20.16C24.15,47,28,34.43,28.62,32.45c-1.69,0-5.44.4-6.38.45-.61,0-2.25.21-3.09-.41-1.11-.8.39-1.05,2.05-1.39,1-.2,8.44-.94,8.44-.94C30.35,28,34.16,11.66,52.2,7.45c0,0-5.72-4.34-16.12-4.37Z"/></g></svg>